<?xml version="1.0" encoding="UTF-8" standalone="no"?>
<svg
   viewBox="0 0 128 128"
   version="1.1"
   id="svg4"
   xmlns="http://www.w3.org/2000/svg"
   xmlns:svg="http://www.w3.org/2000/svg">
  <defs
     id="defs8" />
  <path
     fill="#9c033a"
     d="m 118.85372,32.72744 0.3076,-0.205057 c -0.61517,-1.127817 -1.53792,-2.153106 -2.46068,-2.665751 L 67.179202,1.3536161 C 66.358971,0.84097194 65.231154,0.63591429 64.000808,0.63591429 c -1.230346,0 -2.358163,0.30758652 -3.178393,0.71770181 L 11.608573,29.959163 C 9.8655828,30.98445 8.6352368,33.547672 8.6352368,35.495719 v 57.108562 c 0,1.127817 0.2050575,2.358163 0.9227596,3.485978 l -0.2050578,0.102532 c 0.5126442,0.820226 1.2303464,1.537931 1.9480474,1.948049 l 49.4189,28.60554 c 0.82023,0.51264 1.948048,0.7177 3.178394,0.7177 1.230346,0 2.358163,-0.30758 3.178394,-0.7177 L 116.29051,98.14084 c 1.743,-1.025291 2.97335,-3.588512 2.97335,-5.536559 v -57.21109 c 0.10253,-0.820232 0,-1.742991 -0.41014,-2.665751 z"
     id="path2-3"
     style="fill:#ffffff;stroke-width:1.02528" />
  <path
     fill="#9c033a"
     d="m 113.9575,35.521658 0.28015,-0.186764 c -0.5603,-1.027207 -1.40074,-1.961032 -2.24118,-2.427945 L 66.892741,6.9466253 C 66.145682,6.4797129 65.118474,6.292948 63.997885,6.292948 c -1.120589,0 -2.147796,0.2801474 -2.894856,0.6536773 L 16.279448,33.000331 c -1.587503,0.933825 -2.708092,3.268387 -2.708092,5.042653 v 52.014032 c 0,1.027207 0.186765,2.147796 0.840442,3.175003 l -0.186765,0.09338 c 0.466912,0.74706 1.12059,1.400736 1.774267,1.774267 l 45.010346,26.053704 c 0.74706,0.46692 1.774267,0.65368 2.894857,0.65368 1.120589,0 2.147796,-0.28015 2.894856,-0.65368 L 111.62294,95.099669 c 1.5875,-0.933825 2.70809,-3.268387 2.70809,-5.042653 V 37.949602 c 0.0934,-0.747059 0,-1.587501 -0.37353,-2.427944 z m -33.150773,30.3493 v -3.735299 h 4.669124 v -4.669122 h 4.669123 v 4.669122 h 4.669123 v 3.735299 h -4.669123 v 4.669123 H 85.475851 V 65.870958 Z M 83.888349,52.797414 C 79.966286,45.793729 72.495689,41.124605 63.997885,41.124605 c -12.606632,0 -22.878703,10.272072 -22.878703,22.878704 0,12.606632 10.272071,22.878702 22.878703,22.878702 8.497804,0 15.968401,-4.669122 19.890464,-11.579425 l 12.046337,7.097067 c -6.350007,11.019131 -18.302962,18.489727 -31.936801,18.489727 -20.357376,0 -36.886072,-16.528695 -36.886072,-36.886071 0,-20.357377 16.528696,-36.886072 36.886072,-36.886072 13.727221,0 25.680176,7.563979 32.030184,18.676492 z m 27.734591,13.073544 h -4.66912 v 4.669123 h -3.7353 v -4.669123 h -5.602949 v -3.735299 h 5.602949 v -4.669122 h 3.7353 v 4.669122 h 4.66912 z"
     id="path2"
     style="stroke-width:0.933825" />
</svg>
