<?xml version="1.0" encoding="UTF-8" standalone="no"?>
<svg
   viewBox="0 0 128 128"
   version="1.1"
   id="svg4"
   xmlns="http://www.w3.org/2000/svg"
   xmlns:svg="http://www.w3.org/2000/svg">
  <defs
     id="defs8" />
  <circle
     style="fill:#ffffff;stroke-width:0.738713;stroke-dasharray:1.47743"
     id="path847"
     cx="64"
     cy="64"
     r="62.749828" />
  <path
     fill="#dd4814"
     d="M 64,8.7217659 C 33.469317,8.7217659 8.7208561,33.470226 8.7208561,64 8.7208561,94.527954 33.469317,119.27823 64,119.27823 94.529774,119.27823 119.27914,94.527954 119.27914,64 119.27914,33.470226 94.530683,8.7217659 64,8.7217659 Z M 76.402436,27.758063 A 7.3782225,7.3782225 0 1 1 89.182468,35.135288 7.3744953,7.3744953 0 0 1 79.10384,37.834872 7.3790446,7.3790446 0 0 1 76.402436,27.758063 Z M 64,31.938915 c 2.967996,0 5.838635,0.412171 8.565515,1.165544 a 10.333392,10.333392 0 0 0 5.047958,7.317173 10.352499,10.352499 0 0 0 8.848484,0.717888 c 5.4574,5.366412 9.008622,12.664478 9.526338,20.794166 L 85.472019,62.088363 C 84.501188,51.076208 75.261459,42.441543 64,42.441543 a 21.472929,21.472929 0 0 0 -9.080501,2.004444 L 49.790562,35.257211 A 31.95099,31.95099 0 0 1 64,31.938915 Z M 26.412366,71.380864 A 7.3808644,7.3808644 0 0 1 19.030592,64 a 7.3799545,7.3799545 0 0 1 7.381774,-7.381774 7.3817743,7.3817743 0 0 1 0,14.762638 z M 32.95524,72.03779 A 10.35159,10.35159 0 0 0 36.776693,64 c 0,-3.243686 -1.491276,-6.138892 -3.821453,-8.03961 1.996255,-7.723885 6.801277,-14.319532 13.257714,-18.636865 l 5.396438,9.038648 C 46.066465,50.262785 42.443363,56.706483 42.443363,64 c 0,7.293517 3.622192,13.737215 9.166029,17.636008 l -5.396438,9.041377 C 39.753788,86.360962 34.948765,79.763495 32.95524,72.03779 Z m 53.528554,30.90282 a 7.3744953,7.3744953 0 0 1 -10.078628,-2.7014 c -2.039019,-3.527568 -0.828892,-8.038703 2.701403,-10.077722 3.527566,-2.037198 8.04143,-0.826161 10.078629,2.701404 A 7.3754052,7.3754052 0 0 1 86.483794,102.94061 Z M 86.461957,86.86048 A 10.333392,10.333392 0 0 0 77.613473,87.577458 10.336122,10.336122 0 0 0 72.566425,94.894631 32.056535,32.056535 0 0 1 64,96.062904 31.933703,31.933703 0 0 1 49.791472,92.742789 l 5.128027,-9.189685 A 21.472929,21.472929 0 0 0 64,85.558457 c 11.262369,0 20.501188,-8.632846 21.469289,-19.645911 l 10.519006,0.153768 c -0.517716,8.129688 -4.068938,15.427754 -9.526338,20.794166 z"
     id="path2"
     style="stroke-width:0.90987" />
</svg>
