<?xml version="1.0" encoding="UTF-8" standalone="no"?>
<svg
   xmlns:dc="http://purl.org/dc/elements/1.1/"
   xmlns:cc="http://creativecommons.org/ns#"
   xmlns:rdf="http://www.w3.org/1999/02/22-rdf-syntax-ns#"
   xmlns:svg="http://www.w3.org/2000/svg"
   xmlns="http://www.w3.org/2000/svg"
   xmlns:sodipodi="http://sodipodi.sourceforge.net/DTD/sodipodi-0.dtd"
   xmlns:inkscape="http://www.inkscape.org/namespaces/inkscape"
   viewBox="0 0 128 96"
   version="1.1"
   id="svg68"
   sodipodi:docname="docker-plain.svg"
   width="128"
   height="96"
   inkscape:version="1.0.1 (c497b03c, 2020-09-10)">
  <metadata
     id="metadata74">
    <rdf:RDF>
      <cc:Work
         rdf:about="">
        <dc:format>image/svg+xml</dc:format>
        <dc:type
           rdf:resource="http://purl.org/dc/dcmitype/StillImage" />
        <dc:title></dc:title>
      </cc:Work>
    </rdf:RDF>
  </metadata>
  <defs
     id="defs72" />
  <sodipodi:namedview
     pagecolor="#ffffff"
     bordercolor="#666666"
     borderopacity="1"
     objecttolerance="10"
     gridtolerance="10"
     guidetolerance="10"
     inkscape:pageopacity="0"
     inkscape:pageshadow="2"
     inkscape:window-width="1792"
     inkscape:window-height="1020"
     id="namedview70"
     showgrid="false"
     inkscape:zoom="5.7421875"
     inkscape:cx="64"
     inkscape:cy="64"
     inkscape:window-x="0"
     inkscape:window-y="23"
     inkscape:window-maximized="1"
     inkscape:current-layer="svg68" />
  <path
     d="m 125.32245,35.814285 c -4.3,-2.5 -10,-2.8 -14.8,-1.4 -0.6,-5.2 -4,-9.7 -8,-12.9 l -1.6,-1.3 -1.400001,1.6 c -2.7,3.1 -3.5,8.3 -3.1,12.3 0.3,2.9 1.2,5.9 3,8.3 -1.4,0.8 -2.9,1.9 -4.3,2.4 -2.8,1 -5.9,2 -8.9,2 h -6.7 v -14.1 h -13 V 7.7142857 h -15 V 19.714285 h -25 v 13 h -13 v 14 h -11.2 l -0.2,1.5 c -0.5,6.4 0.3,12.6 3,18.5 l 1.1,2.2 0.1,0.2 c 7.9,13.4 21.7,19 36.8,19 29.2,0 53.3,-13.1 64.300001,-40.6 7.4,0.4 15,-1.8 18.6,-8.9 l 0.9,-1.8 z m -96.800001,-13.1 h 10 v 11 h -10 z m 13.1,44.2 c 0,1.7 -1.4,3.1 -3.1,3.1 -1.7,0 -3.1,-1.4 -3.1,-3.1 0,-1.7 1.4,-3.1 3.1,-3.1 1.7,0.1 3.1,1.4 3.1,3.1 z m -13.1,-31.2 h 10 v 11 h -10 z m -13,0 h 11 v 11 h -11 z m 27.7,50.2 c -15.8,-0.1 -24.3,-5.4 -31.3,-12.4 2.1,0.1 4.1,0.2 5.9,0.2 1.6,0 3.2,0 4.7,-0.1 3.9,-0.2 7.3,-0.7 10.1,-1.5 2.3,5.3 6.5,10.2 14,13.8 z m 8.3,-39.2 h -11 v -11 h 11 z m 0,-13 h -11 v -11 h 11 z m 13,13 h -11 v -11 h 11 z m 0,-13 h -11 v -11 h 11 z m 0,-13 h -11 V 9.7142854 h 11 z m 13,26 h -11 v -11 h 11 z m -38.2,18.2 c -0.2,-0.1 -0.5,-0.2 -0.8,-0.2 -1.2,0 -2.2,1 -2.2,2.2 0,1.2 1,2.2 2.2,2.2 1.2,0 2.2,-1 2.2,-2.2 0,-0.3 -0.1,-0.6 -0.2,-0.8 -0.2,0.3 -0.4,0.5 -0.8,0.5 -0.5,0 -0.9,-0.4 -0.9,-0.9 0.1,-0.4 0.3,-0.7 0.5,-0.8 z"
     fill="#019bc6"
     id="path66" />
</svg>
