<svg width="20mm" height="20mm" version="1.1" viewBox="0 0 20 20" xmlns="http://www.w3.org/2000/svg">
 <defs>
  <linearGradient id="linearGradient932" x1="-5.1452" x2="4.3485" y1="14.307" y2="14.307" gradientTransform="rotate(-45 -.12187 -.025457)" gradientUnits="userSpaceOnUse">
   <stop style="stop-color:#0071b3" offset="0"/>
   <stop style="stop-color:#0071b3;stop-opacity:0" offset="1"/>
  </linearGradient>
 </defs>
 <rect transform="rotate(45)" x="7.2456" y="-6.9227" width="13.974" height="13.974" rx="1.0731" ry="1.0731" style="fill:#ffffff;stroke-width:0"/>
 <path transform="scale(.26458)" d="m37.84 11.336c-0.77439 0-1.5472 0.29725-2.1406 0.89062l-23.842 23.842c-0.08055 0.08055-0.14132 0.17104-0.21094 0.25781l27.354-2.9258s5.6333-0.48705 6.7422-7.4512c0.27303-1.7146 0.73362-4.0921 1.2715-6.6914l-7.0312-7.0312c-0.59338-0.59338-1.3682-0.89062-2.1426-0.89062zm10.178 8.9258c-0.54587 3.4562-1.2988 8.1931-1.2988 8.2598 0 0.22178-0.57336 6.1533-8.0254 6.9961-5.1906 0.58703-18.377 2.258-27.621 3.4355 0.12996 0.51064 0.38403 0.99732 0.78516 1.3984l0.8125 0.8125 28.344-3.1855s5.354-0.82689 6.4629-7.791c0.36546-2.2951 0.9461-5.563 1.5527-8.9141zm1.8574 1.8574c-0.58293 4.9292-1.207 10.136-1.207 10.227 0 0.22178-0.88781 7.4072-8.3398 8.25-4.9942 0.56482-16.464 2.0443-25.064 3.1621l2.5117 2.5117 25.385-3.7793s4.7895-0.26243 5.8984-7.2266c0.44567-2.7988 1.0927-7.5598 1.7148-12.246zm1.709 1.709c-0.44628 6.6344-0.89453 13.238-0.89453 13.344 0 0.22179-0.69836 7.4072-8.1504 8.25-4.8564 0.54923-14.595 2.1717-22.152 3.459l15.312 15.312c1.1868 1.1868 3.0964 1.1868 4.2832 0l23.842-23.842c1.1868-1.1868 1.1868-3.0964 0-4.2832z" style="fill:#004066;stroke-width:3.0294"/>
 <path transform="scale(.26458)" d="m37.842 2.5527c-1.0275 0-2.0545 0.39434-2.8418 1.1816l-31.635 31.633c-0.65522 0.65522-1.0209 1.4784-1.1309 2.3281l5.6523-0.60547c0.16384-0.46703 0.42218-0.90851 0.79688-1.2832l26.754-26.754c0.66585-0.66585 1.5353-0.99805 2.4043-0.99805s1.7384 0.33219 2.4043 0.99805l7.4961 7.4961c0.34174-1.5931 0.67828-3.1803 1.0234-4.7324l-8.082-8.082c-0.7873-0.7873-1.8143-1.1816-2.8418-1.1816zm11.533 9.873c-0.37763 2.3749-0.40257 2.5574-0.78516 4.9707l1.0781 1.0801c0.42161-2.2946 0.56139-3.05 0.90039-4.8574zm1.5664 1.5664c-0.22968 1.9326-0.3058 2.6048-0.60742 5.1484l0.94531 0.94727c0.35942-2.7475 0.41407-3.2035 0.65625-5.1016zm1.3047 1.3047c-0.11767 1.7435-0.18812 2.8241-0.36133 5.3945l15.113 15.115c1.3317 1.3317 1.3317 3.4749 0 4.8066l-26.752 26.754c-1.3317 1.3317-3.4769 1.3317-4.8086 0l-17.674-17.674c-1.7595 0.30295-4.4894 0.76304-4.918 0.83789l22.154 22.154c1.5746 1.5746 4.109 1.5746 5.6836 0l31.633-31.633c1.5746-1.5746 1.5746-4.1109 0-5.6855zm-44.199 24.404c-1.6605 0.21204-4.8445 0.61683-5.2285 0.66602 0.15503 0.24249 0.33462 0.47329 0.54688 0.68555l1.3652 1.3652 5.1758-0.58203-1.2227-1.2227c-0.27279-0.27279-0.47569-0.58517-0.63672-0.91211zm4.498 4.7734c-1.781 0.2322-4.565 0.59261-5.0957 0.66211l2.6406 2.6406 5.0117-0.74609z" style="fill:#a7a8ac;stroke-width:4.0195"/>
 <path d="m9.9941 2.9057c-0.20489 0-0.40938 0.078647-0.56637 0.23564l-6.3081 6.3081c-0.052179 0.05218-0.092287 0.11056-0.12712 0.17157l7.3262-0.78393s1.4905-0.12886 1.7839-1.9715c0.07446-0.46758 0.20189-1.1204 0.34985-1.833l-1.8914-1.8914c-0.157-0.157-0.362-0.23564-0.56689-0.23564zm2.7208 2.3895c-0.15126 0.95732-0.35398 2.2329-0.35398 2.251 0 0.05868-0.1517 1.6281-2.1234 1.851-1.371 0.15505-4.8506 0.59616-7.2983 0.90796 0.039186 0.10082 0.0987 0.19585 0.18035 0.2775l0.30076 0.30076 7.4311-0.83509s1.4166-0.21878 1.71-2.0614c0.09907-0.62214 0.25736-1.5138 0.4222-2.4231zm0.48886 0.48886c-0.15928 1.3465-0.32711 2.7494-0.32711 2.774 0 0.05868-0.2349 1.9598-2.2066 2.1828-1.3042 0.14749-4.2833 0.53149-6.5645 0.82786l0.66353 0.66352 6.6502-0.99012s1.2672-0.06943 1.5606-1.912c0.12006-0.75398 0.29574-2.0452 0.46302-3.3068zm0.44907 0.44907c-0.12063 1.793-0.24133 3.5733-0.24133 3.6018 0 0.05868-0.18477 1.9598-2.1565 2.1828-1.2659 0.14316-3.7952 0.56331-5.7965 0.90382l3.9693 3.9693c0.314 0.314 0.81927 0.314 1.1333 0l6.3081-6.3081c0.314-0.314 0.314-0.81927 0-1.1333z" style="fill:url(#linearGradient932);stroke-width:.80154"/>
</svg>
