<svg width="45mm" height="15mm" version="1.1" viewBox="0 0 45 15" xmlns="http://www.w3.org/2000/svg">
 <rect x="1.1369" y="1.9901" width="43.028" height="11.187" style="fill:#000000"/>
 <circle cx="2.4092" cy="3.8772" r=".4" style="fill:#2c2cbe"/>
 <circle cx="2.4092" cy="5.21" r=".4" style="fill:#2c2cbe"/>
 <circle cx="2.4092" cy="6.5427" r=".4" style="fill:#2c2cbe"/>
 <circle cx="2.4092" cy="7.8755" r=".4" style="fill:#2c2cbe"/>
 <circle cx="2.4092" cy="9.2082" r=".4" style="fill:#2c2cbe"/>
 <circle cx="2.4092" cy="10.541" r=".4" style="fill:#2c2cbe"/>
 <circle cx="2.4092" cy="11.874" r=".4" style="fill:#2c2cbe"/>
 <circle cx="3.0757" cy="3.2069" r=".4" style="fill:#2c2cbe"/>
 <circle cx="3.0757" cy="4.5397" r=".4" style="fill:#2c2cbe"/>
 <circle cx="3.0757" cy="5.8724" r=".4" style="fill:#2c2cbe"/>
 <circle cx="3.0757" cy="7.2052" r=".4" style="fill:#2c2cbe"/>
 <circle cx="3.0757" cy="8.5379" r=".4" style="fill:#2c2cbe"/>
 <circle cx="3.0757" cy="9.8707" r=".4" style="fill:#2c2cbe"/>
 <circle cx="3.0757" cy="11.203" r=".4" style="fill:#2c2cbe"/>
 <circle cx="3.7423" cy="3.8492" r=".4" style="fill:#2c2cbe"/>
 <circle cx="3.7423" cy="5.1819" r=".4" style="fill:#2c2cbe"/>
 <circle cx="3.7423" cy="6.5147" r=".4" style="fill:#2c2cbe"/>
 <circle cx="3.7423" cy="7.8474" r=".4" style="fill:#2c2cbe"/>
 <circle cx="3.7423" cy="9.1802" r=".4" style="fill:#2c2cbe"/>
 <circle cx="3.7423" cy="10.513" r=".4" style="fill:#2c2cbe"/>
 <circle cx="3.7423" cy="11.846" r=".4" style="fill:#2c2cbe"/>
 <circle cx="4.4088" cy="3.1788" r=".4" style="fill:#2c2cbe"/>
 <circle cx="4.4088" cy="4.5116" r=".4" style="fill:#2c2cbe"/>
 <circle cx="4.4088" cy="5.8444" r=".4" style="fill:#2c2cbe"/>
 <circle cx="4.4088" cy="7.1771" r=".4" style="fill:#2c2cbe"/>
 <circle cx="4.4088" cy="8.5099" r=".4" style="fill:#2c2cbe"/>
 <circle cx="4.4088" cy="9.8426" r=".4" style="fill:#2c2cbe"/>
 <circle cx="4.4088" cy="11.175" r=".4" style="fill:#2c2cbe"/>
 <circle cx="5.0754" cy="3.9104" r=".4" style="fill:#2c2cbe"/>
 <circle cx="5.0754" cy="11.907" r=".4" style="fill:#2c2cbe"/>
 <circle cx="5.742" cy="3.2401" r=".4" style="fill:#2c2cbe"/>
 <circle cx="5.742" cy="11.237" r=".4" style="fill:#2c2cbe"/>
 <circle cx="6.4085" cy="3.8824" r=".4" style="fill:#2c2cbe"/>
 <circle cx="6.4085" cy="5.2151" r=".4" style="fill:#2c2cbe"/>
 <circle cx="6.4085" cy="6.5479" r=".4" style="fill:#2c2cbe"/>
 <circle cx="6.4085" cy="7.8807" r=".4" style="fill:#2c2cbe"/>
 <circle cx="6.4085" cy="9.2134" r=".4" style="fill:#2c2cbe"/>
 <circle cx="6.4085" cy="11.879" r=".4" style="fill:#2c2cbe"/>
 <circle cx="7.0751" cy="3.2121" r=".4" style="fill:#2c2cbe"/>
 <circle cx="7.0751" cy="4.5448" r=".4" style="fill:#2c2cbe"/>
 <circle cx="7.0751" cy="5.8776" r=".4" style="fill:#2c2cbe"/>
 <circle cx="7.0751" cy="7.2103" r=".4" style="fill:#2c2cbe"/>
 <circle cx="7.0751" cy="8.5431" r=".4" style="fill:#2c2cbe"/>
 <circle cx="7.0751" cy="11.209" r=".4" style="fill:#2c2cbe"/>
 <circle cx="7.7416" cy="3.9104" r=".4" style="fill:#2c2cbe"/>
 <circle cx="7.7416" cy="5.2432" r=".4" style="fill:#2c2cbe"/>
 <circle cx="7.7416" cy="6.5759" r=".4" style="fill:#2c2cbe"/>
 <circle cx="7.7416" cy="7.9087" r=".4" style="fill:#2c2cbe"/>
 <circle cx="7.7416" cy="9.2415" r=".4" style="fill:#2c2cbe"/>
 <circle cx="7.7416" cy="11.907" r=".4" style="fill:#2c2cbe"/>
 <circle cx="8.4082" cy="3.2401" r=".4" style="fill:#2c2cbe"/>
 <circle cx="8.4082" cy="4.5729" r=".4" style="fill:#2c2cbe"/>
 <circle cx="8.4082" cy="5.9056" r=".4" style="fill:#2c2cbe"/>
 <circle cx="8.4082" cy="7.2384" r=".4" style="fill:#2c2cbe"/>
 <circle cx="8.4082" cy="8.5712" r=".4" style="fill:#2c2cbe"/>
 <circle cx="8.4082" cy="11.237" r=".4" style="fill:#2c2cbe"/>
 <circle cx="9.0748" cy="3.8824" r=".4" style="fill:#2c2cbe"/>
 <circle cx="9.0748" cy="5.2151" r=".4" style="fill:#2c2cbe"/>
 <circle cx="9.0748" cy="6.5479" r=".4" style="fill:#2c2cbe"/>
 <circle cx="9.0748" cy="7.8807" r=".4" style="fill:#2c2cbe"/>
 <circle cx="9.0748" cy="9.2134" r=".4" style="fill:#2c2cbe"/>
 <circle cx="9.0748" cy="10.546" r=".4" style="fill:#2c2cbe"/>
 <circle cx="9.0748" cy="11.879" r=".4" style="fill:#2c2cbe"/>
 <circle cx="9.7413" cy="3.2121" r=".4" style="fill:#2c2cbe"/>
 <circle cx="9.7413" cy="4.5448" r=".4" style="fill:#2c2cbe"/>
 <circle cx="9.7413" cy="5.8776" r=".4" style="fill:#2c2cbe"/>
 <circle cx="9.7413" cy="7.2103" r=".4" style="fill:#2c2cbe"/>
 <circle cx="9.7413" cy="8.5431" r=".4" style="fill:#2c2cbe"/>
 <circle cx="9.7413" cy="9.8759" r=".4" style="fill:#2c2cbe"/>
 <circle cx="9.7413" cy="11.209" r=".4" style="fill:#2c2cbe"/>
 <circle cx="10.449" cy="3.9174" r=".4" style="fill:#2c2cbe"/>
 <circle cx="10.449" cy="11.914" r=".4" style="fill:#2c2cbe"/>
 <circle cx="11.115" cy="3.2471" r=".4" style="fill:#2c2cbe"/>
 <circle cx="11.115" cy="11.244" r=".4" style="fill:#2c2cbe"/>
 <circle cx="11.782" cy="3.8894" r=".4" style="fill:#2c2cbe"/>
 <circle cx="11.782" cy="9.2204" r=".4" style="fill:#2c2cbe"/>
 <circle cx="11.782" cy="10.553" r=".4" style="fill:#2c2cbe"/>
 <circle cx="11.782" cy="11.886" r=".4" style="fill:#2c2cbe"/>
 <circle cx="12.448" cy="3.2191" r=".4" style="fill:#2c2cbe"/>
 <circle cx="12.448" cy="5.8846" r=".4" style="fill:#2c2cbe"/>
 <circle cx="12.448" cy="8.5501" r=".4" style="fill:#2c2cbe"/>
 <circle cx="12.448" cy="9.8829" r=".4" style="fill:#2c2cbe"/>
 <circle cx="12.448" cy="11.216" r=".4" style="fill:#2c2cbe"/>
 <circle cx="13.115" cy="3.9507" r=".4" style="fill:#2c2cbe"/>
 <circle cx="13.115" cy="11.947" r=".4" style="fill:#2c2cbe"/>
 <circle cx="13.781" cy="3.2803" r=".4" style="fill:#2c2cbe"/>
 <circle cx="13.781" cy="11.277" r=".4" style="fill:#2c2cbe"/>
 <circle cx="14.448" cy="3.9226" r=".4" style="fill:#2c2cbe"/>
 <circle cx="14.448" cy="5.2554" r=".4" style="fill:#2c2cbe"/>
 <circle cx="14.448" cy="6.5881" r=".4" style="fill:#2c2cbe"/>
 <circle cx="14.448" cy="7.9209" r=".4" style="fill:#2c2cbe"/>
 <circle cx="14.448" cy="9.2536" r=".4" style="fill:#2c2cbe"/>
 <circle cx="14.448" cy="10.586" r=".4" style="fill:#2c2cbe"/>
 <circle cx="14.448" cy="11.919" r=".4" style="fill:#2c2cbe"/>
 <circle cx="15.114" cy="3.2523" r=".4" style="fill:#2c2cbe"/>
 <circle cx="15.114" cy="4.5851" r=".4" style="fill:#2c2cbe"/>
 <circle cx="15.114" cy="5.9178" r=".4" style="fill:#2c2cbe"/>
 <circle cx="15.114" cy="7.2506" r=".4" style="fill:#2c2cbe"/>
 <circle cx="15.114" cy="8.5833" r=".4" style="fill:#2c2cbe"/>
 <circle cx="15.114" cy="9.9161" r=".4" style="fill:#2c2cbe"/>
 <circle cx="15.114" cy="11.249" r=".4" style="fill:#2c2cbe"/>
 <circle cx="15.781" cy="3.9507" r=".4" style="fill:#2c2cbe"/>
 <circle cx="15.781" cy="11.947" r=".4" style="fill:#2c2cbe"/>
 <circle cx="16.448" cy="3.2803" r=".4" style="fill:#2c2cbe"/>
 <circle cx="16.448" cy="11.277" r=".4" style="fill:#2c2cbe"/>
 <circle cx="17.114" cy="3.9226" r=".4" style="fill:#2c2cbe"/>
 <circle cx="17.114" cy="6.5881" r=".4" style="fill:#2c2cbe"/>
 <circle cx="17.114" cy="7.9209" r=".4" style="fill:#2c2cbe"/>
 <circle cx="17.114" cy="9.2536" r=".4" style="fill:#2c2cbe"/>
 <circle cx="17.114" cy="10.586" r=".4" style="fill:#2c2cbe"/>
 <circle cx="17.114" cy="11.919" r=".4" style="fill:#2c2cbe"/>
 <circle cx="17.781" cy="3.2523" r=".4" style="fill:#2c2cbe"/>
 <circle cx="17.781" cy="5.9178" r=".4" style="fill:#2c2cbe"/>
 <circle cx="17.781" cy="7.2506" r=".4" style="fill:#2c2cbe"/>
 <circle cx="17.781" cy="8.5833" r=".4" style="fill:#2c2cbe"/>
 <circle cx="17.781" cy="9.9161" r=".4" style="fill:#2c2cbe"/>
 <circle cx="17.781" cy="11.249" r=".4" style="fill:#2c2cbe"/>
 <circle cx="18.599" cy="3.9174" r=".4" style="fill:#2c2cbe"/>
 <circle cx="18.599" cy="9.2485" r=".4" style="fill:#2c2cbe"/>
 <circle cx="18.599" cy="10.581" r=".4" style="fill:#2c2cbe"/>
 <circle cx="18.599" cy="11.914" r=".4" style="fill:#2c2cbe"/>
 <circle cx="19.265" cy="3.2471" r=".4" style="fill:#2c2cbe"/>
 <circle cx="19.265" cy="4.5799" r=".4" style="fill:#2c2cbe"/>
 <circle cx="19.265" cy="8.5782" r=".4" style="fill:#2c2cbe"/>
 <circle cx="19.265" cy="9.9109" r=".4" style="fill:#2c2cbe"/>
 <circle cx="19.265" cy="11.244" r=".4" style="fill:#2c2cbe"/>
 <circle cx="19.932" cy="3.8894" r=".4" style="fill:#2c2cbe"/>
 <circle cx="19.932" cy="6.5549" r=".4" style="fill:#2c2cbe"/>
 <circle cx="19.932" cy="7.8877" r=".4" style="fill:#2c2cbe"/>
 <circle cx="19.932" cy="9.2204" r=".4" style="fill:#2c2cbe"/>
 <circle cx="19.932" cy="10.553" r=".4" style="fill:#2c2cbe"/>
 <circle cx="19.932" cy="11.886" r=".4" style="fill:#2c2cbe"/>
 <circle cx="20.598" cy="3.2191" r=".4" style="fill:#2c2cbe"/>
 <circle cx="20.598" cy="5.8846" r=".4" style="fill:#2c2cbe"/>
 <circle cx="20.598" cy="7.2174" r=".4" style="fill:#2c2cbe"/>
 <circle cx="20.598" cy="8.5501" r=".4" style="fill:#2c2cbe"/>
 <circle cx="20.598" cy="9.8829" r=".4" style="fill:#2c2cbe"/>
 <circle cx="20.598" cy="11.216" r=".4" style="fill:#2c2cbe"/>
 <circle cx="21.265" cy="3.9507" r=".4" style="fill:#2c2cbe"/>
 <circle cx="21.265" cy="11.947" r=".4" style="fill:#2c2cbe"/>
 <circle cx="21.931" cy="3.2803" r=".4" style="fill:#2c2cbe"/>
 <circle cx="21.931" cy="11.277" r=".4" style="fill:#2c2cbe"/>
 <circle cx="22.598" cy="3.9226" r=".4" style="fill:#2c2cbe"/>
 <circle cx="22.598" cy="5.2554" r=".4" style="fill:#2c2cbe"/>
 <circle cx="22.598" cy="6.5881" r=".4" style="fill:#2c2cbe"/>
 <circle cx="22.598" cy="7.9209" r=".4" style="fill:#2c2cbe"/>
 <circle cx="22.598" cy="9.2536" r=".4" style="fill:#2c2cbe"/>
 <circle cx="22.598" cy="10.586" r=".4" style="fill:#2c2cbe"/>
 <circle cx="22.598" cy="11.919" r=".4" style="fill:#2c2cbe"/>
 <circle cx="23.265" cy="3.2523" r=".4" style="fill:#2c2cbe"/>
 <circle cx="23.265" cy="4.5851" r=".4" style="fill:#2c2cbe"/>
 <circle cx="23.265" cy="5.9178" r=".4" style="fill:#2c2cbe"/>
 <circle cx="23.265" cy="7.2506" r=".4" style="fill:#2c2cbe"/>
 <circle cx="23.265" cy="8.5833" r=".4" style="fill:#2c2cbe"/>
 <circle cx="23.265" cy="9.9161" r=".4" style="fill:#2c2cbe"/>
 <circle cx="23.265" cy="11.249" r=".4" style="fill:#2c2cbe"/>
 <circle cx="23.931" cy="3.9507" r=".4" style="fill:#2c2cbe"/>
 <circle cx="23.931" cy="11.947" r=".4" style="fill:#2c2cbe"/>
 <circle cx="24.598" cy="3.2803" r=".4" style="fill:#2c2cbe"/>
 <circle cx="24.598" cy="11.277" r=".4" style="fill:#2c2cbe"/>
 <circle cx="25.264" cy="3.9226" r=".4" style="fill:#2c2cbe"/>
 <circle cx="25.264" cy="6.5881" r=".4" style="fill:#2c2cbe"/>
 <circle cx="25.264" cy="7.9209" r=".4" style="fill:#2c2cbe"/>
 <circle cx="25.264" cy="9.2536" r=".4" style="fill:#2c2cbe"/>
 <circle cx="25.264" cy="10.586" r=".4" style="fill:#2c2cbe"/>
 <circle cx="25.264" cy="11.919" r=".4" style="fill:#2c2cbe"/>
 <circle cx="25.931" cy="3.2523" r=".4" style="fill:#2c2cbe"/>
 <circle cx="25.931" cy="5.9178" r=".4" style="fill:#2c2cbe"/>
 <circle cx="25.931" cy="7.2506" r=".4" style="fill:#2c2cbe"/>
 <circle cx="25.931" cy="8.5833" r=".4" style="fill:#2c2cbe"/>
 <circle cx="25.931" cy="9.9161" r=".4" style="fill:#2c2cbe"/>
 <circle cx="25.931" cy="11.249" r=".4" style="fill:#2c2cbe"/>
 <circle cx="26.678" cy="3.8702" r=".4" style="fill:#2c2cbe"/>
 <circle cx="26.678" cy="9.2012" r=".4" style="fill:#2c2cbe"/>
 <circle cx="26.678" cy="10.534" r=".4" style="fill:#2c2cbe"/>
 <circle cx="26.678" cy="11.867" r=".4" style="fill:#2c2cbe"/>
 <circle cx="27.344" cy="3.1999" r=".4" style="fill:#2c2cbe"/>
 <circle cx="27.344" cy="8.5309" r=".4" style="fill:#2c2cbe"/>
 <circle cx="27.344" cy="9.8637" r=".4" style="fill:#2c2cbe"/>
 <circle cx="27.344" cy="11.196" r=".4" style="fill:#2c2cbe"/>
 <circle cx="28.011" cy="3.8421" r=".4" style="fill:#2c2cbe"/>
 <circle cx="28.011" cy="6.5077" r=".4" style="fill:#2c2cbe"/>
 <circle cx="28.011" cy="7.8404" r=".4" style="fill:#2c2cbe"/>
 <circle cx="28.011" cy="9.1732" r=".4" style="fill:#2c2cbe"/>
 <circle cx="28.011" cy="10.506" r=".4" style="fill:#2c2cbe"/>
 <circle cx="28.011" cy="11.839" r=".4" style="fill:#2c2cbe"/>
 <circle cx="28.678" cy="3.1718" r=".4" style="fill:#2c2cbe"/>
 <circle cx="28.678" cy="5.8373" r=".4" style="fill:#2c2cbe"/>
 <circle cx="28.678" cy="7.1701" r=".4" style="fill:#2c2cbe"/>
 <circle cx="28.678" cy="8.5029" r=".4" style="fill:#2c2cbe"/>
 <circle cx="28.678" cy="9.8356" r=".4" style="fill:#2c2cbe"/>
 <circle cx="28.678" cy="11.168" r=".4" style="fill:#2c2cbe"/>
 <circle cx="29.344" cy="3.9034" r=".4" style="fill:#2c2cbe"/>
 <circle cx="29.344" cy="11.9" r=".4" style="fill:#2c2cbe"/>
 <circle cx="30.011" cy="3.2331" r=".4" style="fill:#2c2cbe"/>
 <circle cx="30.011" cy="11.23" r=".4" style="fill:#2c2cbe"/>
 <circle cx="30.677" cy="3.8754" r=".4" style="fill:#2c2cbe"/>
 <circle cx="30.677" cy="5.2081" r=".4" style="fill:#2c2cbe"/>
 <circle cx="30.677" cy="6.5409" r=".4" style="fill:#2c2cbe"/>
 <circle cx="30.677" cy="7.8736" r=".4" style="fill:#2c2cbe"/>
 <circle cx="30.677" cy="9.2064" r=".4" style="fill:#2c2cbe"/>
 <circle cx="30.677" cy="10.539" r=".4" style="fill:#2c2cbe"/>
 <circle cx="30.677" cy="11.872" r=".4" style="fill:#2c2cbe"/>
 <circle cx="31.344" cy="3.205" r=".4" style="fill:#2c2cbe"/>
 <circle cx="31.344" cy="4.5378" r=".4" style="fill:#2c2cbe"/>
 <circle cx="31.344" cy="5.8706" r=".4" style="fill:#2c2cbe"/>
 <circle cx="31.344" cy="7.2033" r=".4" style="fill:#2c2cbe"/>
 <circle cx="31.344" cy="8.5361" r=".4" style="fill:#2c2cbe"/>
 <circle cx="31.344" cy="9.8688" r=".4" style="fill:#2c2cbe"/>
 <circle cx="31.344" cy="11.202" r=".4" style="fill:#2c2cbe"/>
 <circle cx="32.01" cy="3.9034" r=".4" style="fill:#2c2cbe"/>
 <circle cx="32.01" cy="11.9" r=".4" style="fill:#2c2cbe"/>
 <circle cx="32.677" cy="3.2331" r=".4" style="fill:#2c2cbe"/>
 <circle cx="32.677" cy="11.23" r=".4" style="fill:#2c2cbe"/>
 <circle cx="33.343" cy="3.8754" r=".4" style="fill:#2c2cbe"/>
 <circle cx="33.343" cy="6.5409" r=".4" style="fill:#2c2cbe"/>
 <circle cx="33.343" cy="9.2064" r=".4" style="fill:#2c2cbe"/>
 <circle cx="33.343" cy="10.539" r=".4" style="fill:#2c2cbe"/>
 <circle cx="33.343" cy="11.872" r=".4" style="fill:#2c2cbe"/>
 <circle cx="34.01" cy="3.205" r=".4" style="fill:#2c2cbe"/>
 <circle cx="34.01" cy="5.8706" r=".4" style="fill:#2c2cbe"/>
 <circle cx="34.01" cy="8.5361" r=".4" style="fill:#2c2cbe"/>
 <circle cx="34.01" cy="9.8688" r=".4" style="fill:#2c2cbe"/>
 <circle cx="34.01" cy="11.202" r=".4" style="fill:#2c2cbe"/>
 <circle cx="34.781" cy="3.8938" r=".4" style="fill:#2c2cbe"/>
 <circle cx="34.781" cy="9.2249" r=".4" style="fill:#2c2cbe"/>
 <circle cx="34.781" cy="10.558" r=".4" style="fill:#2c2cbe"/>
 <circle cx="34.781" cy="11.89" r=".4" style="fill:#2c2cbe"/>
 <circle cx="35.447" cy="3.2235" r=".4" style="fill:#2c2cbe"/>
 <circle cx="35.447" cy="8.5545" r=".4" style="fill:#2c2cbe"/>
 <circle cx="35.447" cy="9.8873" r=".4" style="fill:#2c2cbe"/>
 <circle cx="35.447" cy="11.22" r=".4" style="fill:#2c2cbe"/>
 <circle cx="36.114" cy="3.8658" r=".4" style="fill:#2c2cbe"/>
 <circle cx="36.114" cy="5.1985" r=".4" style="fill:#2c2cbe"/>
 <circle cx="36.114" cy="6.5313" r=".4" style="fill:#2c2cbe"/>
 <circle cx="36.114" cy="7.864" r=".4" style="fill:#2c2cbe"/>
 <circle cx="36.114" cy="9.1968" r=".4" style="fill:#2c2cbe"/>
 <circle cx="36.114" cy="10.53" r=".4" style="fill:#2c2cbe"/>
 <circle cx="36.114" cy="11.862" r=".4" style="fill:#2c2cbe"/>
 <circle cx="36.78" cy="3.1954" r=".4" style="fill:#2c2cbe"/>
 <circle cx="36.78" cy="4.5282" r=".4" style="fill:#2c2cbe"/>
 <circle cx="36.78" cy="5.861" r=".4" style="fill:#2c2cbe"/>
 <circle cx="36.78" cy="7.1937" r=".4" style="fill:#2c2cbe"/>
 <circle cx="36.78" cy="8.5265" r=".4" style="fill:#2c2cbe"/>
 <circle cx="36.78" cy="9.8592" r=".4" style="fill:#2c2cbe"/>
 <circle cx="36.78" cy="11.192" r=".4" style="fill:#2c2cbe"/>
 <circle cx="37.447" cy="3.927" r=".4" style="fill:#2c2cbe"/>
 <circle cx="37.447" cy="9.2581" r=".4" style="fill:#2c2cbe"/>
 <circle cx="37.447" cy="11.924" r=".4" style="fill:#2c2cbe"/>
 <circle cx="38.114" cy="3.2567" r=".4" style="fill:#2c2cbe"/>
 <circle cx="38.114" cy="8.5878" r=".4" style="fill:#2c2cbe"/>
 <circle cx="38.114" cy="11.253" r=".4" style="fill:#2c2cbe"/>
 <circle cx="38.78" cy="3.899" r=".4" style="fill:#2c2cbe"/>
 <circle cx="38.78" cy="6.5645" r=".4" style="fill:#2c2cbe"/>
 <circle cx="38.78" cy="9.23" r=".4" style="fill:#2c2cbe"/>
 <circle cx="38.78" cy="11.896" r=".4" style="fill:#2c2cbe"/>
 <circle cx="39.447" cy="3.2287" r=".4" style="fill:#2c2cbe"/>
 <circle cx="39.447" cy="5.8942" r=".4" style="fill:#2c2cbe"/>
 <circle cx="39.447" cy="8.5597" r=".4" style="fill:#2c2cbe"/>
 <circle cx="39.447" cy="11.225" r=".4" style="fill:#2c2cbe"/>
 <circle cx="40.113" cy="3.927" r=".4" style="fill:#2c2cbe"/>
 <circle cx="40.113" cy="6.5926" r=".4" style="fill:#2c2cbe"/>
 <circle cx="40.113" cy="11.924" r=".4" style="fill:#2c2cbe"/>
 <circle cx="40.78" cy="3.2567" r=".4" style="fill:#2c2cbe"/>
 <circle cx="40.78" cy="5.9222" r=".4" style="fill:#2c2cbe"/>
 <g transform="translate(.20037)" style="fill:#ffff00">
  <circle cx="4.875" cy="5.2432" r=".36616" style="fill:#ffff00"/>
  <circle cx="4.875" cy="6.5759" r=".36616" style="fill:#ffff00"/>
  <circle cx="4.875" cy="7.9087" r=".36616" style="fill:#ffff00"/>
  <circle cx="4.875" cy="9.2415" r=".36616" style="fill:#ffff00"/>
  <circle cx="4.875" cy="10.574" r=".36616" style="fill:#ffff00"/>
  <circle cx="5.5416" cy="4.5729" r=".36616" style="fill:#ffff00"/>
  <circle cx="5.5416" cy="5.9056" r=".36616" style="fill:#ffff00"/>
  <circle cx="5.5416" cy="7.2384" r=".36616" style="fill:#ffff00"/>
  <circle cx="5.5416" cy="8.5712" r=".36616" style="fill:#ffff00"/>
  <circle cx="5.5416" cy="9.9039" r=".36616" style="fill:#ffff00"/>
  <circle cx="6.2082" cy="10.546" r=".36616" style="fill:#ffff00"/>
  <circle cx="6.8747" cy="9.8759" r=".36616" style="fill:#ffff00"/>
  <circle cx="7.5413" cy="10.574" r=".36616" style="fill:#ffff00"/>
  <circle cx="8.2078" cy="9.9039" r=".36616" style="fill:#ffff00"/>
  <circle cx="10.248" cy="5.2502" r=".36616" style="fill:#ffff00"/>
  <circle cx="10.248" cy="6.583" r=".36616" style="fill:#ffff00"/>
  <circle cx="10.248" cy="7.9157" r=".36616" style="fill:#ffff00"/>
  <circle cx="10.248" cy="9.2485" r=".36616" style="fill:#ffff00"/>
  <circle cx="10.248" cy="10.581" r=".36616" style="fill:#ffff00"/>
  <circle cx="10.915" cy="4.5799" r=".36616" style="fill:#ffff00"/>
  <circle cx="10.915" cy="5.9126" r=".36616" style="fill:#ffff00"/>
  <circle cx="10.915" cy="7.2454" r=".36616" style="fill:#ffff00"/>
  <circle cx="10.915" cy="8.5782" r=".36616" style="fill:#ffff00"/>
  <circle cx="10.915" cy="9.9109" r=".36616" style="fill:#ffff00"/>
  <circle cx="11.581" cy="5.2221" r=".36616" style="fill:#ffff00"/>
  <circle cx="11.581" cy="6.5549" r=".36616" style="fill:#ffff00"/>
  <circle cx="11.581" cy="7.8877" r=".36616" style="fill:#ffff00"/>
  <circle cx="12.248" cy="4.5518" r=".36616" style="fill:#ffff00"/>
  <circle cx="12.248" cy="7.2174" r=".36616" style="fill:#ffff00"/>
  <circle cx="12.914" cy="5.2834" r=".36616" style="fill:#ffff00"/>
  <circle cx="12.914" cy="6.6162" r=".36616" style="fill:#ffff00"/>
  <circle cx="12.914" cy="7.9489" r=".36616" style="fill:#ffff00"/>
  <circle cx="12.914" cy="9.2817" r=".36616" style="fill:#ffff00"/>
  <circle cx="12.914" cy="10.614" r=".36616" style="fill:#ffff00"/>
  <circle cx="13.581" cy="4.6131" r=".36616" style="fill:#ffff00"/>
  <circle cx="13.581" cy="5.9459" r=".36616" style="fill:#ffff00"/>
  <circle cx="13.581" cy="7.2786" r=".36616" style="fill:#ffff00"/>
  <circle cx="13.581" cy="8.6114" r=".36616" style="fill:#ffff00"/>
  <circle cx="13.581" cy="9.9441" r=".36616" style="fill:#ffff00"/>
  <circle cx="15.581" cy="5.2834" r=".36616" style="fill:#ffff00"/>
  <circle cx="15.581" cy="6.6162" r=".36616" style="fill:#ffff00"/>
  <circle cx="15.581" cy="7.9489" r=".36616" style="fill:#ffff00"/>
  <circle cx="15.581" cy="9.2817" r=".36616" style="fill:#ffff00"/>
  <circle cx="15.581" cy="10.614" r=".36616" style="fill:#ffff00"/>
  <circle cx="16.247" cy="4.6131" r=".36616" style="fill:#ffff00"/>
  <circle cx="16.247" cy="5.9459" r=".36616" style="fill:#ffff00"/>
  <circle cx="16.247" cy="7.2786" r=".36616" style="fill:#ffff00"/>
  <circle cx="16.247" cy="8.6114" r=".36616" style="fill:#ffff00"/>
  <circle cx="16.247" cy="9.9441" r=".36616" style="fill:#ffff00"/>
  <circle cx="16.914" cy="5.2554" r=".36616" style="fill:#ffff00"/>
  <circle cx="17.58" cy="4.5851" r=".36616" style="fill:#ffff00"/>
  <circle cx="18.398" cy="5.2502" r=".36616" style="fill:#ffff00"/>
  <circle cx="18.398" cy="6.583" r=".36616" style="fill:#ffff00"/>
  <circle cx="18.398" cy="7.9157" r=".36616" style="fill:#ffff00"/>
  <circle cx="19.065" cy="5.9126" r=".36616" style="fill:#ffff00"/>
  <circle cx="19.065" cy="7.2454" r=".36616" style="fill:#ffff00"/>
  <circle cx="19.731" cy="5.2221" r=".36616" style="fill:#ffff00"/>
  <circle cx="20.398" cy="4.5518" r=".36616" style="fill:#ffff00"/>
  <circle cx="21.065" cy="5.2834" r=".36616" style="fill:#ffff00"/>
  <circle cx="21.065" cy="6.6162" r=".36616" style="fill:#ffff00"/>
  <circle cx="21.065" cy="7.9489" r=".36616" style="fill:#ffff00"/>
  <circle cx="21.065" cy="9.2817" r=".36616" style="fill:#ffff00"/>
  <circle cx="21.065" cy="10.614" r=".36616" style="fill:#ffff00"/>
  <circle cx="21.731" cy="4.6131" r=".36616" style="fill:#ffff00"/>
  <circle cx="21.731" cy="5.9459" r=".36616" style="fill:#ffff00"/>
  <circle cx="21.731" cy="7.2786" r=".36616" style="fill:#ffff00"/>
  <circle cx="21.731" cy="8.6114" r=".36616" style="fill:#ffff00"/>
  <circle cx="21.731" cy="9.9441" r=".36616" style="fill:#ffff00"/>
  <circle cx="23.731" cy="5.2834" r=".36616" style="fill:#ffff00"/>
  <circle cx="23.731" cy="6.6162" r=".36616" style="fill:#ffff00"/>
  <circle cx="23.731" cy="7.9489" r=".36616" style="fill:#ffff00"/>
  <circle cx="23.731" cy="9.2817" r=".36616" style="fill:#ffff00"/>
  <circle cx="23.731" cy="10.614" r=".36616" style="fill:#ffff00"/>
  <circle cx="24.397" cy="4.6131" r=".36616" style="fill:#ffff00"/>
  <circle cx="24.397" cy="5.9459" r=".36616" style="fill:#ffff00"/>
  <circle cx="24.397" cy="7.2786" r=".36616" style="fill:#ffff00"/>
  <circle cx="24.397" cy="8.6114" r=".36616" style="fill:#ffff00"/>
  <circle cx="24.397" cy="9.9441" r=".36616" style="fill:#ffff00"/>
  <circle cx="25.064" cy="5.2554" r=".36616" style="fill:#ffff00"/>
  <circle cx="25.73" cy="4.5851" r=".36616" style="fill:#ffff00"/>
  <circle cx="26.478" cy="5.203" r=".36616" style="fill:#ffff00"/>
  <circle cx="26.478" cy="6.5357" r=".36616" style="fill:#ffff00"/>
  <circle cx="26.478" cy="7.8685" r=".36616" style="fill:#ffff00"/>
  <circle cx="27.144" cy="4.5326" r=".36616" style="fill:#ffff00"/>
  <circle cx="27.144" cy="5.8654" r=".36616" style="fill:#ffff00"/>
  <circle cx="27.144" cy="7.1982" r=".36616" style="fill:#ffff00"/>
  <circle cx="27.811" cy="5.1749" r=".36616" style="fill:#ffff00"/>
  <circle cx="28.477" cy="4.5046" r=".36616" style="fill:#ffff00"/>
  <circle cx="29.144" cy="5.2362" r=".36616" style="fill:#ffff00"/>
  <circle cx="29.144" cy="6.5689" r=".36616" style="fill:#ffff00"/>
  <circle cx="29.144" cy="7.9017" r=".36616" style="fill:#ffff00"/>
  <circle cx="29.144" cy="9.2345" r=".36616" style="fill:#ffff00"/>
  <circle cx="29.144" cy="10.567" r=".36616" style="fill:#ffff00"/>
  <circle cx="29.81" cy="4.5659" r=".36616" style="fill:#ffff00"/>
  <circle cx="29.81" cy="5.8986" r=".36616" style="fill:#ffff00"/>
  <circle cx="29.81" cy="7.2314" r=".36616" style="fill:#ffff00"/>
  <circle cx="29.81" cy="8.5641" r=".36616" style="fill:#ffff00"/>
  <circle cx="29.81" cy="9.8969" r=".36616" style="fill:#ffff00"/>
  <circle cx="31.81" cy="5.2362" r=".36616" style="fill:#ffff00"/>
  <circle cx="31.81" cy="6.5689" r=".36616" style="fill:#ffff00"/>
  <circle cx="31.81" cy="7.9017" r=".36616" style="fill:#ffff00"/>
  <circle cx="31.81" cy="9.2345" r=".36616" style="fill:#ffff00"/>
  <circle cx="31.81" cy="10.567" r=".36616" style="fill:#ffff00"/>
  <circle cx="32.477" cy="4.5659" r=".36616" style="fill:#ffff00"/>
  <circle cx="32.477" cy="5.8986" r=".36616" style="fill:#ffff00"/>
  <circle cx="32.477" cy="7.2314" r=".36616" style="fill:#ffff00"/>
  <circle cx="32.477" cy="8.5641" r=".36616" style="fill:#ffff00"/>
  <circle cx="32.477" cy="9.8969" r=".36616" style="fill:#ffff00"/>
  <circle cx="33.143" cy="5.2081" r=".36616" style="fill:#ffff00"/>
  <circle cx="33.143" cy="7.8736" r=".36616" style="fill:#ffff00"/>
  <circle cx="33.81" cy="4.5378" r=".36616" style="fill:#ffff00"/>
  <circle cx="33.81" cy="7.2033" r=".36616" style="fill:#ffff00"/>
  <circle cx="34.58" cy="5.2266" r=".36616" style="fill:#ffff00"/>
  <circle cx="34.58" cy="6.5593" r=".36616" style="fill:#ffff00"/>
  <circle cx="34.58" cy="7.8921" r=".36616" style="fill:#ffff00"/>
  <circle cx="35.247" cy="4.5563" r=".36616" style="fill:#ffff00"/>
  <circle cx="35.247" cy="5.889" r=".36616" style="fill:#ffff00"/>
  <circle cx="35.247" cy="7.2218" r=".36616" style="fill:#ffff00"/>
  <circle cx="37.247" cy="5.2598" r=".36616" style="fill:#ffff00"/>
  <circle cx="37.247" cy="6.5926" r=".36616" style="fill:#ffff00"/>
  <circle cx="37.247" cy="7.9253" r=".36616" style="fill:#ffff00"/>
  <circle cx="37.247" cy="10.591" r=".36616" style="fill:#ffff00"/>
  <circle cx="37.913" cy="4.5895" r=".36616" style="fill:#ffff00"/>
  <circle cx="37.913" cy="5.9222" r=".36616" style="fill:#ffff00"/>
  <circle cx="37.913" cy="7.255" r=".36616" style="fill:#ffff00"/>
  <circle cx="37.913" cy="9.9205" r=".36616" style="fill:#ffff00"/>
  <circle cx="38.58" cy="5.2317" r=".36616" style="fill:#ffff00"/>
  <circle cx="38.58" cy="7.8973" r=".36616" style="fill:#ffff00"/>
  <circle cx="38.58" cy="10.563" r=".36616" style="fill:#ffff00"/>
  <circle cx="39.246" cy="4.5614" r=".36616" style="fill:#ffff00"/>
  <circle cx="39.246" cy="7.2269" r=".36616" style="fill:#ffff00"/>
  <circle cx="39.246" cy="9.8925" r=".36616" style="fill:#ffff00"/>
  <circle cx="39.913" cy="5.2598" r=".36616" style="fill:#ffff00"/>
  <circle cx="39.913" cy="7.9253" r=".36616" style="fill:#ffff00"/>
  <circle cx="39.913" cy="9.2581" r=".36616" style="fill:#ffff00"/>
  <circle cx="39.913" cy="10.591" r=".36616" style="fill:#ffff00"/>
  <circle cx="40.579" cy="4.5895" r=".36616" style="fill:#ffff00"/>
  <circle cx="40.579" cy="7.255" r=".36616" style="fill:#ffff00"/>
  <circle cx="40.579" cy="8.5878" r=".36616" style="fill:#ffff00"/>
  <circle cx="40.579" cy="9.9205" r=".36616" style="fill:#ffff00"/>
 </g>
 <circle cx="40.78" cy="11.253" r=".4" style="fill:#2c2cbe"/>
 <circle cx="41.446" cy="3.899" r=".4" style="fill:#2c2cbe"/>
 <circle cx="41.446" cy="5.2317" r=".4" style="fill:#2c2cbe"/>
 <circle cx="41.446" cy="6.5645" r=".4" style="fill:#2c2cbe"/>
 <circle cx="41.446" cy="7.8973" r=".4" style="fill:#2c2cbe"/>
 <circle cx="41.446" cy="9.23" r=".4" style="fill:#2c2cbe"/>
 <circle cx="41.446" cy="10.563" r=".4" style="fill:#2c2cbe"/>
 <circle cx="41.446" cy="11.896" r=".4" style="fill:#2c2cbe"/>
 <circle cx="42.113" cy="3.2287" r=".4" style="fill:#2c2cbe"/>
 <circle cx="42.113" cy="4.5614" r=".4" style="fill:#2c2cbe"/>
 <circle cx="42.113" cy="5.8942" r=".4" style="fill:#2c2cbe"/>
 <circle cx="42.113" cy="7.2269" r=".4" style="fill:#2c2cbe"/>
 <circle cx="42.113" cy="8.5597" r=".4" style="fill:#2c2cbe"/>
 <circle cx="42.113" cy="9.8925" r=".4" style="fill:#2c2cbe"/>
 <circle cx="42.113" cy="11.225" r=".4" style="fill:#2c2cbe"/>
 <circle cx="42.815" cy="3.8728" r=".4" style="fill:#2c2cbe"/>
 <circle cx="42.815" cy="5.2055" r=".4" style="fill:#2c2cbe"/>
 <circle cx="42.815" cy="6.5383" r=".4" style="fill:#2c2cbe"/>
 <circle cx="42.815" cy="7.8711" r=".4" style="fill:#2c2cbe"/>
 <circle cx="42.815" cy="9.2038" r=".4" style="fill:#2c2cbe"/>
 <circle cx="42.815" cy="10.537" r=".4" style="fill:#2c2cbe"/>
 <circle cx="42.815" cy="11.869" r=".4" style="fill:#2c2cbe"/>
 <circle cx="43.481" cy="3.2025" r=".4" style="fill:#2c2cbe"/>
 <circle cx="43.481" cy="4.5352" r=".4" style="fill:#2c2cbe"/>
 <circle cx="43.481" cy="5.868" r=".4" style="fill:#2c2cbe"/>
 <circle cx="43.481" cy="7.2007" r=".4" style="fill:#2c2cbe"/>
 <circle cx="43.481" cy="8.5335" r=".4" style="fill:#2c2cbe"/>
 <circle cx="43.481" cy="9.8663" r=".4" style="fill:#2c2cbe"/>
 <circle cx="43.481" cy="11.199" r=".4" style="fill:#2c2cbe"/>
</svg>
